# AST/ASF file generated using VICON BodyLanguage
# -----------------------------------------------
:version 1.10
:name VICON
:units
  mass 1.0
  length 0.45
  angle deg
:documentation
   .ast/.asf automatically generated from VICON data using
   VICON BodyBuilder and BodyLanguage model FoxedUp or BRILLIANT.MOD
:root
   order TX TY TZ RX RY RZ
   axis XYZ
   position 0 0 0  
   orientation 0 0 0 
:bonedata
  begin
     id 1 
     name lhipjoint
     direction 0.602128 -0.715006 0.355257 
     length 2.21237 
     axis 0 0 0  XYZ
  end
  begin
     id 2 
     name lfemur
     direction 0.34202 -0.939693 0  
     length 6.71649  
     axis 0 0 20  XYZ
    dof rx ry rz
    limits (-160.0 20.0)
           (-70.0 70.0)
           (-60.0 70.0)
  end
  begin
     id 3 
     name ltibia
     direction 0.34202 -0.939693 0   
     length 6.97123   
     axis 0 0 20   XYZ
    dof rx
    limits (-10.0 170.0)
  end
  begin
     id 4 
     name lfoot
     direction 0.0655697 -0.180151 0.981451   
     length 1.80924   
     axis -90 7.62852e-016 20   XYZ
    dof rx rz
    limits (-45.0 90.0)
           (-70.0 20.0)
  end
  begin
     id 5 
     name ltoes
     direction 1.53545e-011 -4.21827e-011 1   
     length 0.916331   
     axis -90 7.62852e-016 20   XYZ
    dof rx
    limits (-90.0 20.0)
  end
  begin
     id 6 
     name rhipjoint
     direction -0.625414 -0.698792 0.347201   
     length 2.2637  
     axis 0 0 0  XYZ 
  end
  begin
     id 7 
     name rfemur
     direction -0.34202 -0.939693 0   
     length 7.07595   
     axis 0 0 -20   XYZ
    dof rx ry rz
    limits (-160.0 20.0)
           (-70.0 70.0)
           (-70.0 60.0)
  end
  begin
     id 8 
     name rtibia
     direction -0.34202 -0.939693 0   
     length 7.22924   
     axis 0 0 -20   XYZ
    dof rx
    limits (-10.0 170.0)
 end
 begin
     id 9 
     name rfoot
     direction -0.0766747 -0.210662 0.974547   
     length 1.98482  
     axis -90 -7.62852e-016 -20   XYZ
    dof rx rz
    limits (-45.0 90.0)
           (-20.0 70.0)
  end
  begin
     id 10 
     name rtoes
     direction -1.53532e-011 -4.21867e-011 1   
     length 0.999842   
     axis -90 -7.62852e-016 -20   XYZ
    dof rx
    limits (-90.0 20.0)
  end
  begin
     id 11 
     name lowerback
     direction -0.0224668 0.997354 -0.0691422   
     length 2.09945   
     axis 0 0 0   XYZ
    dof rx ry rz
    limits (-20.0 45.0)
           (-30.0 30.0)
           (-30.0 30.0)
  end
  begin
     id 12 
     name upperback
     direction 0.0134698 0.998451 -0.0539888   
     length 2.09758   
     axis 0 0 0   XYZ
    dof rx ry rz
    limits (-20.0 45.0)
           (-30.0 30.0)
           (-30.0 30.0)
  end
  begin
     id 13 
     name thorax
     direction 0.0241905 0.99948 -0.0213333   
     length 2.10428   
     axis 0 0 0   XYZ
    dof rx ry rz
    limits (-20.0 45.0)
           (-30.0 30.0)
           (-30.0 30.0)
  end
  begin
     id 14 
     name lowerneck
     direction -0.00866847 0.995978 0.0891737   
     length 1.3959   
     axis 0 0 0   XYZ
    dof rx ry rz
    limits (-20.0 45.0)
           (-30.0 30.0)
           (-30.0 30.0)
  end
  begin
     id 15 
     name upperneck
     direction 0.0680679 0.992203 0.104404   
     length 1.39452   
     axis 0 0 0   XYZ
    dof rx ry rz
    limits (-20.0 45.0)
           (-30.0 30.0)
           (-30.0 30.0)
  end
  begin
     id 16
     name head
     direction 0.0242216 0.999358 0.0264054  
     length 1.40433  
     axis 0 0 0   XYZ
    dof rx ry rz
    limits (-20.0 45.0)
           (-30.0 30.0)
           (-30.0 30.0)
  end
  begin
     id 17 
     name lclavicle
     direction 0.929368 0.362991 -0.0671771  
     length 3.04887  
     axis 0 0 0   XYZ
    dof ry rz
    limits (-20.0 10.0)
           (0.0 20.0)
  end
  begin
     id 18 
     name lhumerus
     direction 1 -4.48967e-011 -7.13741e-028   
     length 4.77195   
     axis -180 -30 -90   XYZ
    dof rx ry rz
    limits (-60.0 90.0)
           (-90.0 90.0)
           (-90.0 90.0)
  end
  begin
     id 19
     name lradius
     direction 1 -4.48977e-011 3.60404e-027   
     length 2.98444   
     axis -180 -30 -90   XYZ
    dof rx
    limits (-10.0 170.0)
  end
  begin
     id 20
     name lwrist
     direction 1 -4.48997e-011 7.54877e-027   
     length 1.49222   
     axis -7.18178e-015 90 90   XYZ
    dof ry
    limits (-180.0 0.0)
 end
  begin
     id 21 
     name lhand
     direction 1 -4.489e-011 1.51105e-026   
     length 0.992285   
     axis -9.63605e-015 90 90   XYZ
    dof rx rz
    limits (-90.0 90.0)
           (-45.0 45.0)
  end
  begin
     id 22 
     name lfingers
     direction 1 -4.48998e-011 3.01948e-026   
     length 0.800006   
     axis -1.92718e-014 90 90   XYZ
    dof rx
    limits (0.0 90.0)
  end
  begin
     id 23
     name lthumb
     direction 0.707107 -6.34881e-011 0.707107   
     length 1.14865   
     axis -90 45 -3.53137e-014   XYZ
    dof rx rz
    limits (-45.0 45.0)
           (-45.0 45.0)
  end
  begin
     id 24 
     name rclavicle
     direction -0.945672 0.324529 0.0196374   
     length 3.4236  
     axis 0 0 0   XYZ 
    dof ry rz
    limits (-10.0 20.0)
           (-20.0 0.0)
  end
  begin
     id 25 
     name rhumerus
     direction -1 -4.4896e-011 1.02757e-029  
     length 4.62052   
     axis -180 30 90   XYZ
    dof rx ry rz
    limits (-90.0 60.0)
           (-90.0 90.0)
           (-90.0 90.0)
  end
  begin
     id 26 
     name rradius
     direction -1 -4.48982e-011 3.85962e-027   
     length 2.95332   
     axis -180 30 90   XYZ
    dof rx
    limits (-10.0 170.0)
  end
  begin
     id 27 
     name rwrist
     direction -1 -4.48961e-011 7.55118e-027   
     length 1.47666   
     axis -7.18178e-015 -90 -90   XYZ
    dof ry
    limits (-180.0 0.0)
  end
  begin
     id 28
     name rhand
     direction -1 -4.48984e-011 1.50994e-026   
     length 0.990956   
     axis -9.63605e-015 -90 -90   XYZ
    dof rx rz
    limits (-90.0 90.0)
           (-45.0 45.0)
  end
  begin
     id 29
     name rfingers
     direction -1 -4.4892e-011 3.02158e-026   
     length 0.798934   
     axis -1.92718e-014 -90 -90   XYZ
    dof rx
    limits (0.0 90.0)
  end
  begin
     id 30
     name rthumb
     direction -0.707107 -6.34916e-011 0.707107   
     length 1.14711   
     axis -90 -45 3.53137e-014   XYZ
    dof rx rz
    limits (-45.0 45.0)
           (-45.0 45.0)
  end
:hierarchy
  begin
    root lhipjoint rhipjoint lowerback
    lhipjoint lfemur
    lfemur ltibia
    ltibia lfoot
    lfoot ltoes
    rhipjoint rfemur
    rfemur rtibia
    rtibia rfoot
    rfoot rtoes
    lowerback upperback
    upperback thorax
    thorax lowerneck lclavicle rclavicle
    lowerneck upperneck
    upperneck head
    lclavicle lhumerus
    lhumerus lradius
    lradius lwrist
    lwrist lhand lthumb
    lhand lfingers
    rclavicle rhumerus
    rhumerus rradius
    rradius rwrist
    rwrist rhand rthumb
    rhand rfingers
  end

#!OML:ASF H:\ManfredObstacles\Project 1\Capture day 1\Session 1\Male.ASF
:FULLY-SPECIFIED
:DEGREES
257
root 7.7911 16.2666 7.31391 -84.5931 86.3137 -92.9992
lowerback -9.24426 -0.0304456 -0.6523
upperback 2.04294 0.0371058 0.00697312
thorax 7.3468 -0.0105726 0.380391
lowerneck -1.78385 -1.6974 -5.71251
upperneck -0.570395 -2.12189 9.81423
head 0.32244 -0.998284 4.22192
rclavicle 5.96354e-016 -3.18055e-015
rhumerus -30.5679 -13.6763 -80.2274
rradius 32.0761
rwrist 27.4554
rhand -0.374366 -4.8313
rfingers 7.12502
rthumb 25.2317 -33.1831
lclavicle 5.96354e-016 -3.18055e-015
lhumerus -33.0794 16.0896 77.889
lradius 19.6305
lwrist -30.971
lhand -9.242 6.8791
lfingers 7.12502
lthumb 16.7135 36.1796
rfemur -11.6923 -10.1833 28.2484
rtibia 24.5358
rfoot -23.8241 17.1781
rtoes 19.5229
lfemur -35.7346 -5.05562 -11.9137
ltibia 31.0503
lfoot -1.08999 0.736787
ltoes -4.11023
258
root 7.99655 16.2606 7.30025 -78.8061 86.2021 -87.2632
lowerback -9.36921 0.110547 -0.553627
upperback 1.999 0.213464 0.017719
thorax 7.36992 0.079684 0.363704
lowerneck -1.70891 -1.58377 -5.88461
upperneck -0.53222 -1.97409 9.736
head 0.309483 -0.927244 4.23084
rclavicle 5.96354e-016 5.56597e-015
rhumerus -30.3753 -12.0186 -80.7529
rradius 32.9045
rwrist 26.1413
rhand -0.441448 -4.90859
rfingers 7.12502
rthumb 25.1675 -33.2694
lclavicle 5.96354e-016 5.56597e-015
lhumerus -33.2319 16.7329 77.3196
lradius 18.9983
lwrist -31.2613
lhand -8.9118 7.07111
lfingers 7.12502
lthumb 17.0313 36.3445
rfemur -10.5953 -9.65261 28.1363
rtibia 23.9579
rfoot -24.384 16.9954
rtoes 18.3411
lfemur -34.9325 -5.36706 -11.4037
ltibia 26.0709
lfoot -0.743143 -0.466188
ltoes -4.21859
259
root 8.20585 16.2523 7.28174 -70.9474 86.3269 -79.4223
lowerback -9.49122 0.174476 -0.854557
upperback 1.9557 0.3363 0.0181985
thorax 7.39109 0.126569 0.553344
lowerneck -1.75705 -1.40006 -6.06198
upperneck -0.430001 -1.73132 9.64438
head 0.330631 -0.805187 4.23629
rclavicle -4.77083e-015 -5.56597e-015
rhumerus -30.1737 -10.6885 -81.1122
rradius 33.563
rwrist 25.5982
rhand -0.46851 -4.82414
rfingers 7.12502
rthumb 25.1415 -33.1886
lclavicle -4.77083e-015 -5.56597e-015
lhumerus -33.942 19.3594 76.0444
lradius 18.4074
lwrist -33.6986
lhand -8.69013 7.0669
lfingers 7.12502
lthumb 17.2447 36.3218
rfemur -9.41838 -9.05088 27.6556
rtibia 23.2972
rfoot -24.7961 16.6792
rtoes 17.4103
lfemur -34.0674 -5.20883 -11.5111
ltibia 21.7367
lfoot -0.426228 -1.84295
ltoes -4.53837
260
root 8.41926 16.2432 7.26166 -61.8037 86.4512 -70.2704
lowerback -9.68523 0.325836 -1.07641
upperback 1.94878 0.584114 -0.196231
thorax 7.49164 0.242678 0.492942
lowerneck -1.79122 -1.31036 -5.96342
upperneck -0.40584 -1.61086 9.69301
head 0.333489 -0.742895 4.23535
rclavicle -1.19271e-015 -7.15625e-015
rhumerus -29.9967 -10.389 -81.5139
rradius 34.029
rwrist 25.6714
rhand -0.553155 -4.62997
rfingers 7.12502
rthumb 25.0604 -33.0058
lclavicle -1.19271e-015 -7.15625e-015
lhumerus -34.3831 20.8696 74.9504
lradius 17.7165
lwrist -34.8153
lhand -8.96163 7.04755
lfingers 7.12502
lthumb 16.9834 36.3251
rfemur -8.19993 -8.4404 27.0957
rtibia 22.5955
rfoot -25.1165 16.3046
rtoes 16.9018
lfemur -33.3129 -4.62503 -11.9931
ltibia 18.5003
lfoot 0.179255 -3.35244
ltoes -4.98796
261
root 8.63939 16.2272 7.23937 -56.5676 86.2764 -64.9368
lowerback -9.86249 0.529184 -0.90322
upperback 1.96796 0.851225 -0.389663
thorax 7.61531 0.384891 0.236295
lowerneck -1.74267 -1.28894 -5.89081
upperneck -0.419834 -1.58168 9.83106
head 0.318596 -0.727785 4.27111
rclavicle 1.09332e-015 1.19271e-014
rhumerus -29.9752 -10.2988 -81.9415
rradius 34.494
rwrist 25.4745
rhand -0.755787 -4.68009
rfingers 7.12502
rthumb 24.8663 -33.0829
lclavicle 1.09332e-015 1.19271e-014
lhumerus -34.7324 22.4069 73.6549
lradius 16.8692
lwrist -36.2582
lhand -9.21928 6.98071
lfingers 7.12502
lthumb 16.7354 36.2794
rfemur -6.86596 -7.66532 26.9153
rtibia 21.8897
rfoot -25.6004 15.4877
rtoes 14.935
lfemur -32.708 -4.11711 -12.2421
ltibia 16.6792
lfoot 0.718631 -4.58974
ltoes -4.84733
262
root 8.86405 16.1992 7.20914 -55.6725 86.0189 -63.8498
lowerback -9.92436 0.551261 -0.766677
upperback 1.97153 0.856099 -0.287469
thorax 7.65494 0.390439 0.268708
lowerneck -1.68827 -1.17495 -6.03543
upperneck -0.356242 -1.43456 9.75991
head 0.31693 -0.656293 4.2766
rclavicle -1.98785e-016 6.36111e-015
rhumerus -30.002 -9.76606 -82.1091
rradius 34.8456
rwrist 25.2022
rhand -0.79241 -4.76212
rfingers 7.12502
rthumb 24.8312 -33.1697
lclavicle -1.98785e-016 6.36111e-015
lhumerus -35.4857 24.9464 72.1089
lradius 15.998
lwrist -38.8485
lhand -9.44204 6.91785
lfingers 7.12502
lthumb 16.5209 36.2345
rfemur -5.39653 -6.58753 26.9271
rtibia 21.2131
rfoot -25.9075 14.369
rtoes 13.3586
lfemur -32.215 -3.57429 -12.5266
ltibia 16.2092
lfoot 0.837907 -5.03193
ltoes -5.16823
